# xmcd CD database file
#
# Track frame offsets:
#	150
#	20343
#	41468
#	70288
#	94668
#	113320
#	141985
#	165218
#	187090
#	208800
#
# Disc length: 3034 seconds
#
# Revision: 0
# Processed by: cddbd v1.5.1PL0 Copyright (c) Steve Scherf et al.
# Submitted via: CDex 1.51
#
DISCID=800bd80a
DTITLE=RED WARRIORS - Red's BOX - The Complete Works of RED WARRIORS 4
DYEAR=1992
DGENRE=Rock
TTITLE0=Black Jack Worman
TTITLE1=I Miss You
TTITLE2=Outlaw Blues
TTITLE3=John
TTITLE4=Foolish Gambler
TTITLE5=Wild And Vain
TTITLE6=Royal Straight Flush R&R
TTITLE7=King's Rock'n' Roll
TTITLE8=The Day After
TTITLE9=Party Is Over
EXTD=YEAR: 1992
EXTT0=
EXTT1=
EXTT2=
EXTT3=
EXTT4=
EXTT5=
EXTT6=
EXTT7=
EXTT8=
EXTT9=
PLAYORDER=
